
<svg xmlns="http://www.w3.org/2000/svg" version="1.1" xmlns:xlink="http://www.w3.org/1999/xlink" preserveAspectRatio="none" x="0px" y="0px" width="550px" height="200px" viewBox="0 0 550 200">
<defs>
<g id="S_mbolo_1_0_Layer0_0_FILL">
<path fill="#66FF66" stroke="none" d="
M 31.5 31.75
L 8.85 31.75 1.3 68.25
Q 0.65 71.25 0.35 74 0 76.8 0 79.15 0 85.65 2.25 91.1 4.55 96.5 9.15 100.9 13.75 105.15 20 107.35 26.2 109.45 34.05 109.45 41.3 109.45 47.65 107.4 54.05 105.45 59.55 101.5 65 97.45 68.6 90.95 72.25 84.45 74.05 75.55
L 82.9 31.75 60.4 31.75 51.55 74.55
Q 50 82 45.85 85.45 41.65 88.95 35.8 88.9 29.35 88.8 26.05 85.75 22.75 82.65 22.75 78 22.75 76.75 22.85 75.5 23 74.3 23.2 73.15
L 31.5 31.75 Z"/>

<path fill="#FFFFFF" stroke="none" d="
M 125.5 2.85
L 103 2.85 81.7 107.35 104.2 107.35 125.5 2.85
M 157.15 31.75
L 134.65 31.75 119.2 107.35 141.75 107.35 157.15 31.75
M 155.7 23.35
Q 158.9 21.45 160.8 18.3 162.65 15.2 162.7 11.55 162.65 6.5 159.35 3.25 156.1 0.05 150.7 0 147.9 0 145.4 1.1 142.95 2.15 140.8 4.3 138.7 6.4 137.65 8.85 136.65 11.25 136.65 14.05 136.7 19.1 139.95 22.15 143.1 25.25 148.5 25.3 152.45 25.25 155.7 23.35
M 233.3 36.8
Q 226.35 30.15 214.5 30.1 200.55 30.1 192.45 41.8
L 194.55 31.75 172.1 31.75 156.75 107.35 179.1 107.35 187.55 65.4
Q 189.05 58.4 193.6 54.2 198.1 50 204.6 49.95 210.6 49.95 213.85 52.85 217.05 55.7 217.05 61 217.05 62 217 63.05 216.85 64.05 216.6 65.25
L 208.05 107.35 230.55 107.35 239.7 63.25
Q 240 61.35 240.2 59.45 240.4 57.55 240.4 55.65 240.25 43.5 233.3 36.8
M 303.25 31.75
L 276.55 59.25 287.95 2.85 265.6 2.85 244.3 107.35 266.8 107.35 273.65 73.15 291.7 107.35 316 107.35 294.85 68.1 329.65 31.75 303.25 31.75 Z"/>
</g>
</defs>

<g transform="matrix( 1, 0, 0, 1, 110.2,45.3) ">
<g transform="matrix( 1, 0, 0, 1, 0,0) ">
<use xlink:href="#S_mbolo_1_0_Layer0_0_FILL"/>
</g>
</g>
</svg>
